<svg width="16" height="16" viewBox="0 0 16 16" fill="none" xmlns="http://www.w3.org/2000/svg">
<path fill-rule="evenodd" clip-rule="evenodd" d="M9.99584 0H7.98064L7.73358 2H5.5C3.567 2 2 3.567 2 5.5C2 7.433 3.567 9 5.5 9H6.86888L6.4983 12H2V14H6.25124L6.00418 16H8.01938L8.26644 14H10.5C12.433 14 14 12.433 14 10.5C14 8.567 12.433 7 10.5 7H9.13114L9.50173 4H14V2H9.74878L9.99584 0ZM7.48653 4H5.5C4.67157 4 4 4.67157 4 5.5C4 6.32843 4.67157 7 5.5 7H7.11594L7.48653 4ZM8.88408 9L8.5135 12H10.5C11.3284 12 12 11.3284 12 10.5C12 9.67157 11.3284 9 10.5 9H8.88408Z" fill="#F7F0EA"/>
</svg>
