<svg width="16" height="16" viewBox="0 0 16 16" fill="none" xmlns="http://www.w3.org/2000/svg">
<path d="M3.80213 5C4.0589 4.55577 4.37731 4.13741 4.75736 3.75736C7.1005 1.41421 10.8995 1.41421 13.2426 3.75736L14.6569 2.34315C11.5327 -0.781049 6.46734 -0.781049 3.34315 2.34315C2.55928 3.12701 1.97209 4.03306 1.58157 5H0V7H1.06237C0.979209 7.66386 0.979209 8.33614 1.06237 9H0V11H1.58157C1.97209 11.9669 2.55928 12.873 3.34315 13.6569C6.46734 16.781 11.5327 16.781 14.6569 13.6569L13.2426 12.2426C10.8995 14.5858 7.1005 14.5858 4.75736 12.2426C4.37731 11.8626 4.0589 11.4442 3.80213 11H9V9H3.08344C2.97219 8.33835 2.97219 7.66165 3.08344 7H9V5H3.80213Z" fill="#F7F0EA"/>
</svg>
