<svg width="16" height="16" viewBox="0 0 16 16" fill="none" xmlns="http://www.w3.org/2000/svg">
<path d="M6.5 9.5C6.5 10.3284 7.17157 11 8 11C8.82843 11 9.5 10.3284 9.5 9.5C9.5 8.67157 8.82843 8 8 8C7.17157 8 6.5 8.67157 6.5 9.5Z" fill="#F7F0EA"/>
<path fill-rule="evenodd" clip-rule="evenodd" d="M0 8C0 3.58172 3.58172 0 8 0C12.4183 0 16 3.58172 16 8C16 12.4183 12.4183 16 8 16C3.58172 16 0 12.4183 0 8ZM11.5 9.5C11.5 11.433 9.933 13 8 13C6.067 13 4.5 11.433 4.5 9.5C4.5 8.66441 4.72709 7.84453 5.157 7.12801L7.63381 3H9.96619L8.16392 6.00377C10.0208 6.08938 11.5 7.62195 11.5 9.5Z" fill="#F7F0EA"/>
</svg>
