<svg width="16" height="16" viewBox="0 0 16 16" fill="none" xmlns="http://www.w3.org/2000/svg">
<path fill-rule="evenodd" clip-rule="evenodd" d="M16 8C16 12.4183 12.4183 16 8 16C3.58172 16 0 12.4183 0 8C0 3.58172 3.58172 0 8 0C12.4183 0 16 3.58172 16 8ZM11 6C11 6.73649 10.7189 7.44521 10.2142 7.98151L7.37325 11H11V13H5V10.6034L8.75778 6.61079C8.91336 6.44547 9 6.22701 9 6C9 5.44772 8.55228 5 8 5C7.44772 5 7 5.44772 7 6H5C5 4.34315 6.34315 3 8 3C9.65685 3 11 4.34315 11 6Z" fill="#F7F0EA"/>
</svg>
