<svg width="16" height="16" viewBox="0 0 16 16" fill="none" xmlns="http://www.w3.org/2000/svg">
<path fill-rule="evenodd" clip-rule="evenodd" d="M8 16C12.4183 16 16 12.4183 16 8C16 3.58172 12.4183 0 8 0C3.58172 0 0 3.58172 0 8C0 12.4183 3.58172 16 8 16ZM8 8C8.82843 8 9.5 8.67157 9.5 9.5C9.5 10.3284 8.82843 11 8 11C7.17157 11 6.5 10.3284 6.5 9.5H4.5C4.5 11.433 6.067 13 8 13C9.933 13 11.5 11.433 11.5 9.5C11.5 7.9339 10.4714 6.60805 9.05293 6.16115L11 4.90946V3H5V5H8.08528L6 6.34054V8H8Z" fill="#F7F0EA"/>
</svg>
