<svg width="16" height="16" viewBox="0 0 16 16" fill="none" xmlns="http://www.w3.org/2000/svg">
<path fill-rule="evenodd" clip-rule="evenodd" d="M3.5 4.5C3.5 2.01472 5.51472 0 8 0C10.4853 0 12.5 2.01472 12.5 4.5C12.5 5.28573 12.2986 6.02443 11.9447 6.66729C12.9073 7.65783 13.5 9.00969 13.5 10.5C13.5 13.5376 11.0376 16 8 16C4.96243 16 2.5 13.5376 2.5 10.5C2.5 9.00969 3.09274 7.65782 4.05534 6.66729C3.70138 6.02443 3.5 5.28573 3.5 4.5ZM8 3C7.17157 3 6.5 3.67157 6.5 4.5C6.5 5.32843 7.17157 6 8 6C8.82843 6 9.5 5.32843 9.5 4.5C9.5 3.67157 8.82843 3 8 3ZM8 8C6.61929 8 5.5 9.11929 5.5 10.5C5.5 11.8807 6.61929 13 8 13C9.38071 13 10.5 11.8807 10.5 10.5C10.5 9.12062 9.38288 8.00217 8.00401 8L8 8Z" fill="#F7F0EA"/>
</svg>
