<svg width="16" height="16" viewBox="0 0 16 16" fill="none" xmlns="http://www.w3.org/2000/svg">
<path d="M9.5 6.5C9.5 5.67157 8.82843 5 8 5C7.17157 5 6.5 5.67157 6.5 6.5C6.5 7.32843 7.17157 8 8 8C8.82843 8 9.5 7.32843 9.5 6.5Z" fill="#F7F0EA"/>
<path fill-rule="evenodd" clip-rule="evenodd" d="M16 8C16 12.4183 12.4183 16 8 16C3.58172 16 0 12.4183 0 8C0 3.58172 3.58172 0 8 0C12.4183 0 16 3.58172 16 8ZM4.5 6.5C4.5 4.567 6.067 3 8 3C9.933 3 11.5 4.567 11.5 6.5C11.5 7.33559 11.2729 8.15547 10.843 8.87199L8.36619 13H6.03381L7.83608 9.99623C5.97918 9.91062 4.5 8.37805 4.5 6.5Z" fill="#F7F0EA"/>
</svg>
