<svg width="16" height="16" viewBox="0 0 16 16" fill="none" xmlns="http://www.w3.org/2000/svg">
<path d="M7.5 9C6.94772 9 6.5 9.44771 6.5 10C6.5 10.5523 6.94772 11 7.5 11H8.5C9.05228 11 9.5 10.5523 9.5 10C9.5 9.44772 9.05228 9 8.5 9H7.5Z" fill="#F7F0EA"/>
<path d="M8 7C7.44772 7 7 6.55228 7 6C7 5.44772 7.44772 5 8 5C8.55228 5 9 5.44772 9 6C9 6.55228 8.55228 7 8 7Z" fill="#F7F0EA"/>
<path fill-rule="evenodd" clip-rule="evenodd" d="M16 8C16 12.4183 12.4183 16 8 16C3.58172 16 0 12.4183 0 8C0 3.58172 3.58172 0 8 0C12.4183 0 16 3.58172 16 8ZM10.4551 7.72451C10.7984 7.23666 11 6.64187 11 6C11 4.34315 9.65685 3 8 3C6.34315 3 5 4.34315 5 6C5 6.64187 5.20158 7.23666 5.54489 7.72451C4.90514 8.27469 4.5 9.09003 4.5 10C4.5 11.6569 5.84315 13 7.5 13H8.5C10.1569 13 11.5 11.6569 11.5 10C11.5 9.09003 11.0949 8.27468 10.4551 7.72451Z" fill="#F7F0EA"/>
</svg>
