<svg width="16" height="16" viewBox="0 0 16 16" fill="none" xmlns="http://www.w3.org/2000/svg">
<path d="M5.68623 3.05176e-05H10.3138L12.178 3.27838L13.9282 2.26792L14.4282 3.13395L13.3301 7.23203L9.23203 6.13395L8.73203 5.26792L10.4459 4.2784L9.15033 2.00003L6.84966 2.00003L6.29552 2.9745L4.56343 1.97448L5.68623 3.05176e-05Z" fill="#F7F0EA"/>
<path d="M13.1649 9.05967L13.7039 10.0076L12.6055 12H9.99998L9.99998 9.99998H8.99998L5.99998 13L8.99998 16H9.99998L9.99998 14H13.7868L15.996 9.99245L14.8969 8.05965L13.1649 9.05967Z" fill="#F7F0EA"/>
<path d="M3.39445 12H4.49998V14H2.21325L0.00390625 9.99245L1.8446 6.75557L0.0717772 5.73203L0.571776 4.86601L4.66986 3.76793L5.76793 7.86601L5.26793 8.73203L3.57669 7.75559L2.29605 10.0076L3.39445 12Z" fill="#F7F0EA"/>
</svg>
